<?xml version="1.0" standalone="no"?>
<!DOCTYPE svg PUBLIC "-//W3C//DTD SVG 20010904//EN"
 "http://www.w3.org/TR/2001/REC-SVG-20010904/DTD/svg10.dtd">
<svg version="1.0" xmlns="http://www.w3.org/2000/svg"
 width="500.000000pt" height="333.000000pt" viewBox="0 0 500.000000 333.000000"
 preserveAspectRatio="xMidYMid meet">

<g transform="translate(0.000000,333.000000) scale(0.100000,-0.100000)"
fill="#000000" stroke="none">
<path d="M3590 3129 c-25 -12 -76 -34 -115 -51 -94 -40 -449 -189 -602 -252
-60 -24 -390 -164 -523 -221 -661 -283 -1506 -647 -1538 -664 -23 -12 -54 -39
-69 -62 -24 -37 -27 -51 -34 -187 -4 -81 -11 -296 -15 -477 l-7 -330 24 -28
c15 -17 38 -30 61 -34 43 -6 89 3 85 18 -2 9 34 26 104 48 14 5 38 7 53 4 23
-5 26 -10 26 -50 0 -59 40 -103 95 -103 29 0 245 71 465 152 14 5 26 9 27 9 2
0 67 22 145 50 79 28 158 55 176 60 18 6 30 14 27 19 -3 6 0 7 7 5 8 -3 34 1
58 10 23 8 44 14 45 13 5 -6 15 -524 15 -780 l0 -278 96 0 97 0 -6 487 -5 488
40 42 c35 35 42 51 49 99 4 31 11 60 16 65 10 10 197 79 233 86 20 4 22 2 10
-6 -8 -6 -13 -11 -10 -11 18 0 296 102 298 110 2 6 17 10 33 10 16 0 64 13
107 29 42 16 115 43 162 60 132 47 181 67 175 72 -3 3 59 29 137 58 79 29 184
68 233 87 89 33 184 57 140 34 -16 -8 -12 -9 19 -4 50 7 137 46 157 70 9 10
57 91 108 179 50 88 128 219 172 290 44 72 92 154 107 183 25 50 26 54 9 66
-9 7 -17 24 -17 38 0 62 -37 131 -75 138 -16 3 -41 19 -29 20 5 0 16 -6 24
-12 8 -7 7 -4 -3 8 -12 15 -26 20 -45 17 -22 -3 -23 -2 -8 5 24 10 6 25 -18
16 -12 -5 -15 -2 -10 9 3 10 -4 22 -23 33 -15 10 -43 31 -60 48 -22 20 -33 25
-34 15 0 -11 -2 -11 -7 1 -19 43 -186 170 -221 169 -23 0 -24 -1 -6 -9 11 -5
16 -9 11 -9 -5 -1 10 -16 34 -33 109 -82 189 -160 201 -195 14 -43 7 -130 -15
-170 -20 -36 -20 -27 -1 27 19 55 19 58 -7 62 -17 2 -25 14 -33 48 -7 25 -17
55 -23 67 -6 11 -79 77 -162 145 -232 190 -269 218 -293 218 -12 0 -42 -10
-67 -21z m479 -215 c14 -12 -19 -1 -35 12 -18 14 -18 14 6 3 14 -6 27 -13 29
-15z m32 -31 c13 -16 12 -17 -3 -4 -17 13 -22 21 -14 21 2 0 10 -8 17 -17z
m107 -118 c-3 -3 -9 2 -12 12 -6 14 -5 15 5 6 7 -7 10 -15 7 -18z m-1084 -134
c23 -24 29 -43 38 -107 11 -92 0 -164 -38 -232 l-23 -44 54 -136 c30 -75 55
-139 55 -143 0 -7 -81 -42 -85 -37 -1 2 -24 58 -50 126 -27 67 -54 122 -61
122 -42 0 -44 -6 -44 -160 l0 -148 -32 -11 c-17 -6 -32 -10 -34 -8 -1 1 -6
171 -10 377 l-7 375 69 27 c92 36 132 36 168 -1z m-347 -168 c-5 -7 -14 -13
-19 -13 -5 0 -43 -14 -84 -31 l-74 -31 0 -109 c0 -81 3 -109 13 -109 6 0 45
14 86 30 40 17 77 30 83 30 5 0 8 -21 6 -47 l-3 -46 -92 -35 -93 -35 0 -114
c0 -62 3 -113 8 -113 4 0 43 14 85 30 43 17 82 30 88 30 5 0 9 -21 9 -47 l0
-48 -125 -46 c-69 -25 -127 -43 -130 -41 -3 3 -5 170 -5 371 l0 366 63 25 c34
13 89 36 122 51 l60 27 5 -41 c3 -23 2 -48 -3 -54z m1609 -46 c-42 -82 -72
-125 -81 -115 -8 8 4 31 63 125 25 40 48 71 50 68 3 -3 -11 -38 -32 -78z
m-1950 -48 c-1 -47 1 -45 -103 -90 l-73 -32 0 -109 c0 -101 1 -110 18 -103 66
27 144 55 152 55 15 0 12 -76 -2 -87 -7 -5 -48 -23 -90 -39 l-78 -29 0 -112
c0 -62 1 -113 3 -113 1 0 38 14 82 30 44 16 84 30 88 30 4 0 7 -21 5 -47 l-3
-48 -115 -42 c-63 -23 -118 -42 -122 -42 -5 -1 -8 162 -8 362 l0 362 113 47
c61 26 117 47 123 48 7 0 11 -16 10 -41z m-417 -150 c18 -6 38 -24 46 -40 37
-70 27 -221 -20 -306 l-23 -42 48 -133 48 -133 -37 -17 c-20 -9 -39 -14 -42
-10 -4 4 -23 57 -44 117 -20 61 -39 112 -40 113 -2 2 -13 1 -24 -3 -20 -6 -21
-14 -21 -139 0 -140 -2 -146 -47 -160 l-23 -7 0 134 c0 73 3 236 7 360 l6 226
31 12 c28 10 100 38 102 39 1 0 15 -5 33 -11z m-313 -137 c5 -4 18 -18 27 -32
15 -22 17 -59 17 -322 l0 -297 -29 -15 c-16 -9 -31 -12 -35 -9 -3 4 -6 44 -6
90 0 46 -4 83 -10 83 -5 0 -34 -9 -65 -21 l-55 -20 0 -94 0 -93 -30 -12 c-17
-7 -33 -11 -35 -8 -3 2 -1 135 3 294 8 286 9 290 36 346 36 75 85 118 134 118
20 0 42 -4 48 -8z m-331 -149 c38 -38 47 -116 16 -133 -29 -15 -38 -12 -45 15
-9 36 -41 50 -71 31 -41 -27 -53 -86 -59 -275 -5 -189 3 -231 45 -231 28 0 67
46 75 86 6 33 28 54 55 54 17 0 6 -65 -21 -122 -44 -95 -117 -139 -169 -101
-47 36 -53 75 -43 309 8 201 9 213 36 267 47 98 135 146 181 100z m2280 -92
c3 -6 -32 -22 -77 -36 -110 -34 -639 -222 -693 -246 -104 -46 -395 -139 -431
-138 -23 0 -15 5 36 24 247 88 379 136 448 163 28 11 52 19 52 17 0 -2 30 9
68 24 37 15 148 54 247 87 99 32 182 62 185 65 3 3 16 9 30 12 19 5 114 32
127 36 1 1 4 -3 8 -8z m-1240 -442 c-4 -5 -13 -9 -22 -9 -13 0 -13 3 -3 15 13
15 35 11 25 -6z m605 1 c-8 -5 -19 -10 -25 -10 -5 0 -3 5 5 10 8 5 20 10 25
10 6 0 3 -5 -5 -10z m-950 -119 c0 -5 -7 -11 -15 -15 -15 -5 -20 5 -8 17 9 10
23 9 23 -2z m-40 -20 c0 -8 -176 -70 -245 -86 -54 -12 -13 12 65 39 41 14 93
32 115 40 47 18 65 20 65 7z m105 -83 c-2 -24 -3 -62 -4 -86 -1 -39 -3 -42
-16 -28 -8 8 -18 30 -20 48 -4 26 -3 29 4 13 9 -19 10 -19 10 3 1 12 5 22 9
22 4 0 6 16 4 35 -2 19 0 35 5 35 5 0 9 -19 8 -42z m-395 -23 c-7 -8 -19 -15
-26 -15 -8 0 -22 -5 -32 -10 -21 -13 -372 -141 -392 -144 -9 -1 -21 -5 -27 -9
-25 -16 -214 -77 -236 -77 -18 1 -19 2 -6 10 8 5 27 11 41 14 15 2 38 12 52
22 15 9 29 14 33 11 3 -3 24 3 47 15 22 12 61 27 86 34 25 7 70 22 100 34 30
12 66 25 80 30 14 5 50 18 80 30 60 24 190 68 204 69 5 1 3 -6 -4 -14z m497
-57 c-3 -7 -5 -2 -5 12 0 14 2 19 5 13 2 -7 2 -19 0 -25z m-117 -113 c2 11 6
-11 10 -50 6 -72 4 -96 -7 -57 -3 12 -9 19 -14 16 -5 -3 -8 32 -7 78 1 71 2
76 8 38 4 -25 8 -36 10 -25z m20 -161 c0 -8 -4 -14 -10 -14 -5 0 -10 9 -10 21
0 11 5 17 10 14 6 -3 10 -13 10 -21z m-23 -401 c-3 -10 -5 -4 -5 12 0 17 2 24
5 18 2 -7 2 -21 0 -30z m33 -78 c0 -8 -4 -15 -10 -15 -5 0 -10 7 -10 15 0 8 5
15 10 15 6 0 10 -7 10 -15z m-1 -107 c-1 -40 -4 -63 -6 -50 -9 46 -22 20 -26
-50 -2 -59 -3 -52 -5 35 -2 102 5 135 31 137 4 0 6 -33 6 -72z m98 20 c-3 -7
-5 -2 -5 12 0 14 2 19 5 13 2 -7 2 -19 0 -25z m0 -106 c-2 -15 -4 -2 -4 28 0
30 2 43 4 28 2 -16 2 -40 0 -56z m-57 34 c0 -8 -4 -18 -10 -21 -5 -3 -10 3
-10 14 0 12 5 21 10 21 6 0 10 -6 10 -14z m57 -128 c-3 -7 -5 -2 -5 12 0 14 2
19 5 13 2 -7 2 -19 0 -25z"/>
<path d="M2988 2548 l-28 -10 6 -131 c4 -73 9 -134 11 -137 10 -11 78 38 95
70 26 51 25 158 -3 194 -22 28 -37 30 -81 14z"/>
<path d="M1933 2120 c-22 -9 -23 -14 -23 -140 0 -71 2 -130 5 -130 23 0 68 37
85 70 29 57 28 162 -2 190 -24 22 -32 23 -65 10z"/>
<path d="M1607 1989 c-37 -22 -49 -67 -54 -210 -7 -160 -10 -155 82 -115 l55
25 0 133 c0 105 -3 138 -16 156 -16 24 -39 27 -67 11z"/>
<path d="M3820 1680 c-8 -5 -10 -10 -5 -10 6 0 17 5 25 10 8 5 11 10 5 10 -5
0 -17 -5 -25 -10z"/>
</g>
</svg>
